HIERARCHY
ROOT Hips
{
	OFFSET -0.001795 -0.223333 0.028219
	CHANNELS 6 Xposition Yposition Zposition Zrotation Yrotation Xrotation 
	JOINT LeftUpLeg
	{
		OFFSET 0.069520 -0.091406 -0.006815
		CHANNELS 3 Zrotation Yrotation Xrotation
		JOINT LeftLeg
		{
			OFFSET 0.034277 -0.375199 -0.004496
			CHANNELS 3 Zrotation Yrotation Xrotation
			JOINT LeftFoot
			{
				OFFSET -0.013596 -0.397961 -0.043693
				CHANNELS 3 Zrotation Yrotation Xrotation
				JOINT LeftToe
				{
					OFFSET 0.026358 -0.055791 0.119288
					CHANNELS 3 Zrotation Yrotation Xrotation
					End Site
					{
						OFFSET 0.000000 0.000000 0.000000
					}
				}
			}
		}
	}
	JOINT RightUpLeg
	{
		OFFSET -0.067670 -0.090522 -0.004320
		CHANNELS 3 Zrotation Yrotation Xrotation
		JOINT RightLeg
		{
			OFFSET -0.038290 -0.382569 -0.008850
			CHANNELS 3 Zrotation Yrotation Xrotation
			JOINT RightFoot
			{
				OFFSET 0.015774 -0.398415 -0.042312
				CHANNELS 3 Zrotation Yrotation Xrotation
				JOINT RightToe
				{
					OFFSET -0.025372 -0.048144 0.123348
					CHANNELS 3 Zrotation Yrotation Xrotation
					End Site
					{
						OFFSET 0.000000 0.000000 0.000000
					}
				}
			}
		}
	}
	JOINT Spine
	{
		OFFSET -0.002533 0.108963 -0.026696
		CHANNELS 3 Zrotation Yrotation Xrotation
		JOINT Spine1
		{
			OFFSET 0.005487 0.135180 0.001092
			CHANNELS 3 Zrotation Yrotation Xrotation
			JOINT Spine2
			{
				OFFSET 0.001457 0.052922 0.025425
				CHANNELS 3 Zrotation Yrotation Xrotation
				JOINT Neck
				{
					OFFSET -0.002778 0.213870 -0.042857
					CHANNELS 3 Zrotation Yrotation Xrotation
					JOINT Head
					{
						OFFSET 0.005152 0.064970 0.051349
						CHANNELS 3 Zrotation Yrotation Xrotation
						End Site
						{
							OFFSET 0.000000 0.000000 0.000000
						}
					}
				}
				JOINT LeftShoulder
				{
					OFFSET 0.078845 0.121749 -0.034090
					CHANNELS 3 Zrotation Yrotation Xrotation
					JOINT LeftArm
					{
						OFFSET 0.090977 0.030469 -0.008868
						CHANNELS 3 Zrotation Yrotation Xrotation
						JOINT LeftForeArm
						{
							OFFSET 0.259612 -0.012772 -0.027456
							CHANNELS 3 Zrotation Yrotation Xrotation
							JOINT LeftHand
							{
								OFFSET 0.249234 0.008986 -0.001171
								CHANNELS 3 Zrotation Yrotation Xrotation
								End Site
								{
									OFFSET 0.000000 0.000000 0.000000
								}
							}
						}
					}
				}
				JOINT RightShoulder
				{
					OFFSET -0.081759 0.118833 -0.038615
					CHANNELS 3 Zrotation Yrotation Xrotation
					JOINT RightArm
					{
						OFFSET -0.096012 0.032551 -0.009143
						CHANNELS 3 Zrotation Yrotation Xrotation
						JOINT RightForeArm
						{
							OFFSET -0.253742 -0.013329 -0.021401
							CHANNELS 3 Zrotation Yrotation Xrotation
							JOINT RightHand
							{
								OFFSET -0.255298 0.007772 -0.005559
								CHANNELS 3 Zrotation Yrotation Xrotation
								End Site
								{
									OFFSET 0.000000 0.000000 0.000000
								}
							}
						}
					}
				}
			}
		}
	}
}
MOTION
Frames: 14
Frame Time: 0.050000
-0.052281 0.870744 -0.123881 -7.696236 7.588738 19.049869 29.302935 1.910609 -27.118602 -3.609636 0.310732 4.233855 10.857338 22.441941 16.882692 0.000000 0.000000 0.000000 -2.569494 2.342157 -38.721968 -11.483148 4.115594 22.744086 -4.216397 -14.555208 34.728487 0.000000 0.000000 0.000000 -8.904299 1.085337 33.846385 -11.117709 3.075248 -22.879762 -11.248023 -15.356773 28.949234 -5.880181 3.112384 -38.664106 0.000000 0.000000 0.000000 14.386478 -25.279872 5.502070 13.257651 -52.496250 -6.985520 79.563635 -5.768300 -0.889717 0.000000 0.000000 0.000000 19.367611 14.047286 3.163580 55.392555 15.376049 -0.078867 41.204799 59.760254 24.888550 0.000000 0.000000 0.000000 
-0.051199 0.875097 -0.125309 -7.649413 7.528478 19.160485 29.139106 1.996541 -27.811654 -3.727144 0.323629 5.121373 10.667643 22.167239 17.912405 0.000000 0.000000 0.000000 -1.613201 2.613457 -38.284528 -13.329307 4.503916 21.457396 -3.658477 -14.023731 36.107827 0.000000 0.000000 0.000000 -9.414562 1.279645 34.115192 -10.628853 2.977815 -22.870970 -11.425650 -15.090450 28.588003 -6.466844 3.386245 -37.458410 0.000000 0.000000 0.000000 13.690037 -25.083051 5.696344 12.555780 -52.699433 -6.849366 78.801997 -7.639536 -2.323928 0.000000 0.000000 0.000000 19.474116 13.503470 2.930981 54.955661 14.619503 -0.377194 43.998740 60.233623 26.889309 0.000000 0.000000 0.000000 
-0.049719 0.877595 -0.126492 -7.664203 7.345510 19.215138 28.648513 2.039890 -28.441933 -3.166207 0.239026 6.145159 10.558985 22.014386 18.358326 0.000000 0.000000 0.000000 -1.434800 2.679888 -38.032629 -13.762415 4.522045 20.661251 -3.332001 -13.737021 36.823856 0.000000 0.000000 0.000000 -10.016380 1.520706 34.012336 -10.361036 2.939888 -22.614441 -11.375490 -15.287265 28.459976 -7.263416 3.696139 -36.867209 0.000000 0.000000 0.000000 12.572783 -24.999271 6.008225 10.645569 -52.870031 -6.162528 78.556411 -9.365662 -3.492935 0.000000 0.000000 0.000000 18.891799 13.777594 3.053621 54.797272 14.650042 -0.375336 45.097704 61.184038 27.996724 0.000000 0.000000 0.000000 
-0.047839 0.881406 -0.127764 -7.957172 6.712176 19.127682 28.697170 2.302619 -29.253404 -3.239985 0.242169 8.172808 10.614209 22.016286 19.132049 0.000000 0.000000 0.000000 -1.238407 2.785476 -37.323417 -13.735995 4.310744 19.094722 -2.825556 -13.330859 37.529619 0.000000 0.000000 0.000000 -10.637936 1.817350 34.129452 -10.024070 2.859866 -22.789108 -11.155285 -15.119033 28.433618 -7.683107 3.874891 -36.484110 0.000000 0.000000 0.000000 11.693279 -24.552886 6.146066 8.765378 -52.729768 -5.434637 78.283409 -11.298361 -4.832580 0.000000 0.000000 0.000000 17.712926 13.384743 2.906214 55.373388 14.640664 -0.465504 48.643507 61.517643 30.410595 0.000000 0.000000 0.000000 
-0.045943 0.884300 -0.128970 -8.885813 6.580992 18.840422 29.149991 2.512666 -29.666030 -2.669236 0.134680 9.428551 10.477856 21.805816 19.573065 0.000000 0.000000 0.000000 -0.513705 2.970738 -36.487119 -13.418803 4.042610 17.768842 -2.565080 -13.138089 38.245991 0.000000 0.000000 0.000000 -10.911261 1.907423 33.860187 -9.383629 2.755038 -22.370680 -10.791411 -14.724155 28.262714 -7.778921 3.966729 -35.770248 0.000000 0.000000 0.000000 11.208393 -24.101055 6.165004 6.712597 -52.020031 -4.638954 76.929441 -12.278790 -5.439231 0.000000 0.000000 0.000000 16.315935 13.331784 3.094836 56.101585 16.171297 0.118879 46.077914 61.619020 28.936563 0.000000 0.000000 0.000000 
-0.043890 0.887055 -0.130255 -9.973183 6.238174 17.999124 29.739149 2.771496 -29.791924 -2.192639 0.023107 11.337536 10.332809 21.558457 19.837741 0.000000 0.000000 0.000000 -0.155132 3.048389 -35.371718 -12.083184 3.599695 16.933461 -2.325342 -12.967062 38.792682 0.000000 0.000000 0.000000 -11.283900 2.037706 34.032164 -8.506587 2.595774 -21.996978 -10.288820 -13.582127 28.190139 -7.849146 4.136289 -34.464367 0.000000 0.000000 0.000000 11.173303 -23.733436 6.067357 4.601689 -51.236606 -3.929076 75.009525 -13.675490 -6.405406 0.000000 0.000000 0.000000 16.248724 13.322232 3.364475 55.681047 17.513752 0.688302 44.007791 61.895193 28.087003 0.000000 0.000000 0.000000 
-0.041710 0.889345 -0.131524 -11.054026 5.816736 17.920530 30.234455 3.108987 -30.480949 -1.459212 -0.148977 13.011178 10.318075 21.479252 20.334682 0.000000 0.000000 0.000000 -0.022519 3.128347 -35.060541 -10.490680 3.105241 16.043380 -2.055016 -12.822483 39.376727 0.000000 0.000000 0.000000 -11.456835 2.138875 34.017275 -7.966553 2.470369 -22.002709 -9.810405 -13.024370 28.089432 -8.128395 4.306020 -34.191913 0.000000 0.000000 0.000000 11.134459 -23.573213 6.052188 3.304186 -50.319942 -3.436119 73.401517 -14.140262 -6.572533 0.000000 0.000000 0.000000 15.926667 13.492105 3.562617 55.891499 18.687341 1.214833 40.600831 62.062276 26.121174 0.000000 0.000000 0.000000 
-0.039798 0.891515 -0.132799 -12.036840 4.994931 17.519461 30.815150 3.551230 -31.039861 -1.176057 -0.246225 15.411011 10.385977 21.454207 20.912325 0.000000 0.000000 0.000000 0.221251 3.172689 -33.582930 -9.221221 2.544218 13.656006 -1.679881 -12.559724 39.509115 0.000000 0.000000 0.000000 -11.968264 2.398994 34.011385 -7.758662 2.408698 -22.105294 -9.122910 -12.153213 28.117574 -8.091741 4.362472 -33.479178 0.000000 0.000000 0.000000 10.497552 -23.469114 6.191422 2.485313 -49.274630 -3.212039 71.652586 -14.638209 -6.829634 0.000000 0.000000 0.000000 16.763428 13.323954 3.567535 54.497112 18.850659 1.232415 41.918255 61.932546 27.039522 0.000000 0.000000 0.000000 
-0.038161 0.891800 -0.134004 -12.818960 4.186025 17.208059 31.324859 3.922801 -31.252058 -1.003110 -0.303157 17.083648 10.574047 21.593358 21.085833 0.000000 0.000000 0.000000 0.482219 3.225650 -32.492319 -8.361865 2.172029 11.860486 -1.337489 -12.312449 39.370012 0.000000 0.000000 0.000000 -12.216936 2.575585 34.175985 -7.641661 2.373217 -22.102560 -8.865303 -12.023693 27.932173 -8.281734 4.441483 -32.456991 0.000000 0.000000 0.000000 9.875188 -23.000370 6.217638 0.565807 -47.759883 -2.473755 70.350471 -14.159478 -6.259372 0.000000 0.000000 0.000000 17.079011 13.268486 3.438970 53.314182 18.871285 1.220783 45.095602 61.636508 28.786493 0.000000 0.000000 0.000000 
-0.036799 0.891631 -0.135341 -13.527805 2.991648 17.187576 31.685981 4.466069 -32.015260 -0.753968 -0.380388 19.613683 10.854445 21.800173 21.559285 0.000000 0.000000 0.000000 0.708585 3.360205 -32.158822 -7.576597 1.907887 10.763567 -0.798327 -11.943935 39.247359 0.000000 0.000000 0.000000 -12.674385 2.863275 33.683428 -7.791113 2.382962 -22.292314 -8.501745 -11.649192 28.172148 -8.212615 4.408678 -31.434640 0.000000 0.000000 0.000000 9.382369 -22.701345 6.243878 -0.467049 -45.822998 -2.096363 67.701727 -14.483850 -6.150841 0.000000 0.000000 0.000000 17.890727 12.910771 3.143126 51.296040 18.713880 1.069120 48.990851 61.005449 30.838953 0.000000 0.000000 0.000000 
-0.035150 0.892631 -0.136748 -14.129552 2.395442 17.321250 31.802076 4.821156 -32.769183 -0.218132 -0.541729 21.188137 10.883646 21.745815 22.136706 0.000000 0.000000 0.000000 0.665862 3.427544 -32.285680 -6.539817 1.669027 10.349718 -0.446567 -11.745232 39.681445 0.000000 0.000000 0.000000 -12.578496 2.917380 33.897064 -8.056961 2.425890 -22.401346 -8.395835 -11.732078 28.214963 -8.504632 4.490193 -31.548189 0.000000 0.000000 0.000000 9.725682 -22.375615 6.056022 -1.161190 -44.852522 -1.790485 64.768876 -13.521117 -5.166721 0.000000 0.000000 0.000000 18.240728 12.465779 2.747146 50.303701 18.659986 1.031319 52.093927 61.024762 32.726655 0.000000 0.000000 0.000000 
-0.033599 0.894232 -0.138074 -14.766326 1.590395 17.490792 31.760398 5.194528 -33.511238 0.601906 -0.795431 22.880896 10.906856 21.647650 23.001867 0.000000 0.000000 0.000000 0.652224 3.499337 -32.223874 -5.448771 1.389767 9.512097 0.025049 -11.468396 40.196283 0.000000 0.000000 0.000000 -12.410766 2.949234 33.719245 -8.356327 2.482025 -22.342337 -8.247589 -11.580986 28.157762 -8.293040 4.359315 -31.055443 0.000000 0.000000 0.000000 9.438792 -22.101964 6.054437 -1.563820 -44.013797 -1.647131 61.820326 -12.408715 -4.230586 0.000000 0.000000 0.000000 18.936507 12.043949 2.360937 49.275176 18.557574 0.998990 55.465135 60.829591 34.728852 0.000000 0.000000 0.000000 
-0.032302 0.894582 -0.139415 -15.217481 0.975670 17.465316 31.918828 5.412888 -33.494762 0.898455 -0.873985 23.455895 11.058127 21.748751 23.254407 0.000000 0.000000 0.000000 1.128363 3.628761 -31.902024 -5.541200 1.337071 8.704448 0.413015 -11.203097 40.374882 0.000000 0.000000 0.000000 -12.295405 3.004555 34.140921 -8.644128 2.499556 -23.035376 -8.281885 -11.931601 28.101595 -8.869929 4.566280 -30.726819 0.000000 0.000000 0.000000 9.148913 -21.964309 6.089303 -1.984569 -42.398078 -1.455177 59.964886 -11.777290 -3.645113 0.000000 0.000000 0.000000 20.113628 12.206676 2.112222 48.229988 18.081872 0.904880 58.465077 61.173248 36.768989 0.000000 0.000000 0.000000 
-0.030907 0.895365 -0.140744 -15.416948 0.232199 17.741262 31.794551 5.686572 -33.972211 1.135277 -0.935629 24.436550 11.227242 21.842449 23.840204 0.000000 0.000000 0.000000 1.591736 3.808749 -32.008234 -6.127708 1.382115 8.085549 0.917779 -10.872148 40.672763 0.000000 0.000000 0.000000 -12.332102 3.175827 34.746730 -8.930805 2.518004 -23.771356 -8.653589 -11.966089 27.989720 -8.930399 4.543698 -30.870161 0.000000 0.000000 0.000000 9.957205 -21.869646 5.849629 -1.704790 -41.022549 -1.411610 56.266316 -11.629122 -3.284614 0.000000 0.000000 0.000000 20.910531 11.869562 1.683600 47.576948 17.422048 0.746027 61.154452 61.061186 38.387266 0.000000 0.000000 0.000000 
